<?xml version="1.0" encoding="UTF-8"?>
<!DOCTYPE score-partwise PUBLIC "-//Recordare//DTD MusicXML 4.0 Partwise//EN" "http://www.musicxml.org/dtds/partwise.dtd">
<score-partwise version="4.0">
  <work>
    <work-title>Tytuł</work-title>
    </work>
  <identification>
    <creator type="composer">Kompozytor/aranżer</creator>
    <encoding>
      <software>MuseScore Studio 4.6.5</software>
      <encoding-date>2026-02-16</encoding-date>
      <supports element="accidental" type="yes"/>
      <supports element="beam" type="yes"/>
      <supports element="print" attribute="new-page" type="yes" value="yes"/>
      <supports element="print" attribute="new-system" type="yes" value="yes"/>
      <supports element="stem" type="yes"/>
      </encoding>
    <miscellaneous>
      <miscellaneous-field name="creationDate">2025-10-19</miscellaneous-field>
      <miscellaneous-field name="platform">Microsoft Windows</miscellaneous-field>
      <miscellaneous-field name="subtitle">Podtytuł</miscellaneous-field>
      </miscellaneous>
    </identification>
  <defaults>
    <scaling>
      <millimeters>6.99911</millimeters>
      <tenths>40</tenths>
      </scaling>
    <page-layout>
      <page-height>846.29</page-height>
      <page-width>1200.48</page-width>
      <page-margins type="even">
        <left-margin>85.7252</left-margin>
        <right-margin>85.7252</right-margin>
        <top-margin>85.7252</top-margin>
        <bottom-margin>85.7252</bottom-margin>
        </page-margins>
      <page-margins type="odd">
        <left-margin>85.7252</left-margin>
        <right-margin>85.7252</right-margin>
        <top-margin>42.0968</top-margin>
        <bottom-margin>27.5806</bottom-margin>
        </page-margins>
      </page-layout>
    <appearance>
      <line-width type="light barline">1.8</line-width>
      <line-width type="heavy barline">5.5</line-width>
      <line-width type="beam">5</line-width>
      <line-width type="bracket">4.5</line-width>
      <line-width type="dashes">1</line-width>
      <line-width type="enclosure">1</line-width>
      <line-width type="ending">1.1</line-width>
      <line-width type="extend">1</line-width>
      <line-width type="leger">1.6</line-width>
      <line-width type="pedal">1.1</line-width>
      <line-width type="octave shift">1.1</line-width>
      <line-width type="slur middle">2.1</line-width>
      <line-width type="slur tip">0.5</line-width>
      <line-width type="staff">1.1</line-width>
      <line-width type="stem">1</line-width>
      <line-width type="tie middle">2.1</line-width>
      <line-width type="tie tip">0.5</line-width>
      <line-width type="tuplet bracket">1</line-width>
      <line-width type="wedge">1.2</line-width>
      <note-size type="cue">70</note-size>
      <note-size type="grace">70</note-size>
      <note-size type="grace-cue">49</note-size>
      </appearance>
    <music-font font-family="Leland"/>
    <word-font font-family="Edwin" font-size="10"/>
    <lyric-font font-family="Edwin" font-size="10"/>
    </defaults>
  <credit page="1">
    <credit-type>title</credit-type>
    <credit-words default-x="600.241935" default-y="804.193548" justify="center" valign="top" font-size="20">Osobliwy i prawdziwy</credit-words>
    </credit>
  <credit page="1">
    <credit-type>subtitle</credit-type>
    <credit-words default-x="600.241935" default-y="747.043434" justify="center" valign="top">św. Jana Kantego, prezbitera
</credit-words>
    <credit-words>20 października</credit-words>
    </credit>
  <credit page="1">
    <credit-type>composer</credit-type>
    <credit-words default-x="1114.7587" default-y="744.6914" justify="right" valign="bottom">h.: A. Skutnik</credit-words>
    </credit>
  <part-list>
    <score-part id="P1">
      <part-name>Organo</part-name>
      <part-abbreviation>Org.</part-abbreviation>
      <score-instrument id="P1-I1">
        <instrument-name>Organo</instrument-name>
        <instrument-sound>keyboard.organ</instrument-sound>
        </score-instrument>
      <midi-device id="P1-I1" port="1"></midi-device>
      <midi-instrument id="P1-I1">
        <midi-channel>1</midi-channel>
        <midi-program>20</midi-program>
        <volume>78.7402</volume>
        <pan>0</pan>
        </midi-instrument>
      </score-part>
    </part-list>
  <part id="P1">
    <measure number="1" width="237.19">
      <print>
        <system-layout>
          <system-margins>
            <left-margin>50</left-margin>
            <right-margin>0</right-margin>
            </system-margins>
          <top-system-distance>129.5</top-system-distance>
          </system-layout>
        <staff-layout number="2">
          <staff-distance>152.74</staff-distance>
          </staff-layout>
        </print>
      <attributes>
        <divisions>2</divisions>
        <key>
          <fifths>-1</fifths>
          </key>
        <time>
          <beats>3</beats>
          <beat-type>4</beat-type>
          </time>
        <staves>3</staves>
        <clef number="1">
          <sign>G</sign>
          <line>2</line>
          </clef>
        <clef number="2">
          <sign>F</sign>
          <line>4</line>
          </clef>
        <clef number="3">
          <sign>F</sign>
          <line>4</line>
          </clef>
        <staff-details number="3" print-object="no">
          <staff-lines>5</staff-lines>
          </staff-details>
        </attributes>
      <note default-x="98.59" default-y="-45">
        <pitch>
          <step>D</step>
          <octave>4</octave>
          </pitch>
        <duration>2</duration>
        <voice>1</voice>
        <type>quarter</type>
        <stem>up</stem>
        <staff>1</staff>
        <lyric number="1" default-x="-20.56" default-y="-59.92" relative-y="-30">
          <syllabic>begin</syllabic>
          <text>1. O</text>
          </lyric>
        <lyric number="2" default-x="-22.18" default-y="-83.63" relative-y="-30">
          <syllabic>begin</syllabic>
          <text>2. Cie</text>
          </lyric>
        <lyric number="3" default-x="-21.77" default-y="-107.34" relative-y="-30">
          <syllabic>single</syllabic>
          <text>3. Racz</text>
          </lyric>
        </note>
      <note default-x="145.05" default-y="-35">
        <pitch>
          <step>F</step>
          <octave>4</octave>
          </pitch>
        <duration>2</duration>
        <voice>1</voice>
        <type>quarter</type>
        <stem>up</stem>
        <staff>1</staff>
        <lyric number="1" default-y="-59.92" relative-y="-30">
          <syllabic>middle</syllabic>
          <text>so</text>
          </lyric>
        <lyric number="2" default-y="-83.63" relative-y="-30">
          <syllabic>end</syllabic>
          <text>bie</text>
          </lyric>
        <lyric number="3" default-y="-107.34" relative-y="-30">
          <syllabic>single</syllabic>
          <text>przy</text>
          </lyric>
        </note>
      <note default-x="188.27" default-y="-30">
        <pitch>
          <step>G</step>
          <octave>4</octave>
          </pitch>
        <duration>2</duration>
        <voice>1</voice>
        <type>quarter</type>
        <stem>up</stem>
        <staff>1</staff>
        <lyric number="1" default-y="-59.92" relative-y="-30">
          <syllabic>middle</syllabic>
          <text>bli</text>
          </lyric>
        <lyric number="2" default-y="-83.63" relative-y="-30">
          <syllabic>begin</syllabic>
          <text>Świę</text>
          </lyric>
        <lyric number="3" default-y="-107.34" relative-y="-30">
          <syllabic>begin</syllabic>
          <text>zgo</text>
          </lyric>
        </note>
      <backup>
        <duration>6</duration>
        </backup>
      <note default-x="98.59" default-y="-212.74">
        <pitch>
          <step>D</step>
          <octave>3</octave>
          </pitch>
        <duration>2</duration>
        <voice>5</voice>
        <type>quarter</type>
        <stem>up</stem>
        <staff>2</staff>
        </note>
      <note default-x="145.05" default-y="-202.74">
        <pitch>
          <step>F</step>
          <octave>3</octave>
          </pitch>
        <duration>2</duration>
        <voice>5</voice>
        <type>quarter</type>
        <stem>up</stem>
        <staff>2</staff>
        </note>
      <note default-x="188.27" default-y="-197.74">
        <pitch>
          <step>G</step>
          <octave>3</octave>
          </pitch>
        <duration>2</duration>
        <voice>5</voice>
        <type>quarter</type>
        <stem>up</stem>
        <staff>2</staff>
        </note>
      <backup>
        <duration>6</duration>
        </backup>
      <note default-x="113.09" default-y="-212.74">
        <pitch>
          <step>D</step>
          <octave>3</octave>
          </pitch>
        <duration>6</duration>
        <tie type="start"/>
        <voice>6</voice>
        <type>half</type>
        <dot default-x="131.08" default-y="-217.74"/>
        <stem>down</stem>
        <staff>2</staff>
        <notations>
          <tied type="start"/>
          </notations>
        </note>
      <backup>
        <duration>6</duration>
        </backup>
      <note default-x="150.49" default-y="-10">
        <rest measure="yes"/>
        <duration>6</duration>
        <voice>9</voice>
        <staff>3</staff>
        </note>
      </measure>
    <measure number="2" width="116.3">
      <note default-x="12.5" default-y="-25">
        <pitch>
          <step>A</step>
          <octave>4</octave>
          </pitch>
        <duration>4</duration>
        <voice>1</voice>
        <type>half</type>
        <stem>up</stem>
        <staff>1</staff>
        <lyric number="1" default-y="-59.92" relative-y="-30">
          <syllabic>end</syllabic>
          <text>wy</text>
          </lyric>
        <lyric number="2" default-y="-83.63" relative-y="-30">
          <syllabic>end</syllabic>
          <text>ty,</text>
          </lyric>
        <lyric number="3" default-x="6.5" default-y="-107.34" relative-x="1" relative-y="-30">
          <syllabic>end</syllabic>
          <text>nie</text>
          </lyric>
        </note>
      <note default-x="73.7" default-y="-20">
        <rest/>
        <duration>2</duration>
        <voice>1</voice>
        <type>quarter</type>
        <staff>1</staff>
        </note>
      <backup>
        <duration>6</duration>
        </backup>
      <note default-x="12.5" default-y="-192.74">
        <pitch>
          <step>A</step>
          <octave>3</octave>
          </pitch>
        <duration>6</duration>
        <voice>5</voice>
        <type>half</type>
        <dot default-x="30.49" default-y="-187.74"/>
        <stem>up</stem>
        <staff>2</staff>
        </note>
      <backup>
        <duration>6</duration>
        </backup>
      <note default-x="12.5" default-y="-212.74">
        <pitch>
          <step>D</step>
          <octave>3</octave>
          </pitch>
        <duration>6</duration>
        <tie type="stop"/>
        <tie type="start"/>
        <voice>6</voice>
        <type>half</type>
        <dot default-x="30.49" default-y="-217.74"/>
        <stem>down</stem>
        <staff>2</staff>
        <notations>
          <tied type="stop"/>
          <tied type="start"/>
          </notations>
        </note>
      <backup>
        <duration>6</duration>
        </backup>
      <note default-x="50.76" default-y="-10">
        <rest measure="yes"/>
        <duration>6</duration>
        <voice>9</voice>
        <staff>3</staff>
        </note>
      </measure>
    <measure number="3" width="151.6">
      <note default-x="16.83" default-y="-45">
        <pitch>
          <step>D</step>
          <octave>4</octave>
          </pitch>
        <duration>2</duration>
        <voice>1</voice>
        <type>quarter</type>
        <stem>up</stem>
        <staff>1</staff>
        <lyric number="1" default-y="-59.92" relative-y="-30">
          <syllabic>single</syllabic>
          <text>i</text>
          </lyric>
        <lyric number="2" default-y="-83.63" relative-y="-30">
          <syllabic>begin</syllabic>
          <text>da</text>
          </lyric>
        <lyric number="3" default-x="6.5" default-y="-107.34" relative-y="-30">
          <syllabic>single</syllabic>
          <text>nasz</text>
          </lyric>
        </note>
      <note default-x="57.63" default-y="-35">
        <pitch>
          <step>F</step>
          <octave>4</octave>
          </pitch>
        <duration>2</duration>
        <voice>1</voice>
        <type>quarter</type>
        <stem>up</stem>
        <staff>1</staff>
        <lyric number="1" default-y="-59.92" relative-y="-30">
          <syllabic>begin</syllabic>
          <text>praw</text>
          </lyric>
        <lyric number="2" default-y="-83.63" relative-y="-30">
          <syllabic>end</syllabic>
          <text>ły</text>
          </lyric>
        <lyric number="3" default-x="6.5" default-y="-107.34" relative-y="-30">
          <syllabic>begin</syllabic>
          <text>Pa</text>
          </lyric>
        </note>
      <note default-x="109" default-y="-30">
        <pitch>
          <step>G</step>
          <octave>4</octave>
          </pitch>
        <duration>2</duration>
        <voice>1</voice>
        <type>quarter</type>
        <stem>up</stem>
        <staff>1</staff>
        <lyric number="1" default-y="-59.92" relative-y="-30">
          <syllabic>middle</syllabic>
          <text>dzi</text>
          </lyric>
        <lyric number="2" default-y="-83.63" relative-y="-30">
          <syllabic>begin</syllabic>
          <text>Kę</text>
          </lyric>
        <lyric number="3" default-x="6.5" default-y="-107.34" relative-y="-30">
          <syllabic>middle</syllabic>
          <text>tro</text>
          </lyric>
        </note>
      <backup>
        <duration>6</duration>
        </backup>
      <note default-x="31.32" default-y="-45">
        <pitch>
          <step>D</step>
          <octave>4</octave>
          </pitch>
        <duration>4</duration>
        <voice>2</voice>
        <type>half</type>
        <stem>down</stem>
        <staff>1</staff>
        </note>
      <note default-x="109" default-y="-40">
        <pitch>
          <step>E</step>
          <octave>4</octave>
          </pitch>
        <duration>2</duration>
        <voice>2</voice>
        <type>quarter</type>
        <stem>down</stem>
        <staff>1</staff>
        </note>
      <backup>
        <duration>6</duration>
        </backup>
      <note default-x="16.83" default-y="-177.74">
        <pitch>
          <step>D</step>
          <octave>4</octave>
          </pitch>
        <duration>2</duration>
        <voice>5</voice>
        <type>quarter</type>
        <stem>up</stem>
        <staff>2</staff>
        </note>
      <note default-x="57.63" default-y="-182.74">
        <pitch>
          <step>C</step>
          <octave>4</octave>
          </pitch>
        <duration>2</duration>
        <voice>5</voice>
        <type>quarter</type>
        <stem>up</stem>
        <staff>2</staff>
        </note>
      <note default-x="109" default-y="-187.74">
        <pitch>
          <step>B</step>
          <alter>-1</alter>
          <octave>3</octave>
          </pitch>
        <duration>2</duration>
        <voice>5</voice>
        <type>quarter</type>
        <stem>up</stem>
        <staff>2</staff>
        </note>
      <backup>
        <duration>6</duration>
        </backup>
      <note default-x="16.83" default-y="-212.74">
        <pitch>
          <step>D</step>
          <octave>3</octave>
          </pitch>
        <duration>6</duration>
        <tie type="stop"/>
        <tie type="start"/>
        <voice>6</voice>
        <type>half</type>
        <dot default-x="34.82" default-y="-217.74"/>
        <stem>down</stem>
        <staff>2</staff>
        <notations>
          <tied type="stop"/>
          <tied type="start"/>
          </notations>
        </note>
      <backup>
        <duration>6</duration>
        </backup>
      <note default-x="68.41" default-y="-10">
        <rest measure="yes"/>
        <duration>6</duration>
        <voice>9</voice>
        <staff>3</staff>
        </note>
      </measure>
    <measure number="4" width="116.3">
      <note default-x="12.5" default-y="-25">
        <pitch>
          <step>A</step>
          <octave>4</octave>
          </pitch>
        <duration>4</duration>
        <voice>1</voice>
        <type>half</type>
        <stem>up</stem>
        <staff>1</staff>
        <lyric number="1" default-y="-59.92" relative-y="-30">
          <syllabic>end</syllabic>
          <text>wy, *</text>
          </lyric>
        <lyric number="2" default-y="-83.63" relative-y="-30">
          <syllabic>end</syllabic>
          <text>ty, *</text>
          </lyric>
        <lyric number="3" default-x="16.98" default-y="-107.34" relative-y="-30">
          <syllabic>end</syllabic>
          <text>nie, *</text>
          </lyric>
        </note>
      <note default-x="73.7" default-y="-10">
        <rest/>
        <duration>2</duration>
        <voice>1</voice>
        <type>quarter</type>
        <staff>1</staff>
        </note>
      <backup>
        <duration>6</duration>
        </backup>
      <note default-x="12.5" default-y="-35">
        <pitch>
          <step>F</step>
          <octave>4</octave>
          </pitch>
        <duration>6</duration>
        <voice>2</voice>
        <type>half</type>
        <dot default-x="30.49" default-y="-35"/>
        <stem>down</stem>
        <staff>1</staff>
        </note>
      <backup>
        <duration>6</duration>
        </backup>
      <note default-x="12.5" default-y="-177.74">
        <pitch>
          <step>D</step>
          <octave>4</octave>
          </pitch>
        <duration>6</duration>
        <voice>5</voice>
        <type>half</type>
        <dot default-x="30.49" default-y="-177.74"/>
        <stem>up</stem>
        <staff>2</staff>
        </note>
      <backup>
        <duration>6</duration>
        </backup>
      <note default-x="12.5" default-y="-212.74">
        <pitch>
          <step>D</step>
          <octave>3</octave>
          </pitch>
        <duration>6</duration>
        <tie type="stop"/>
        <voice>6</voice>
        <type>half</type>
        <dot default-x="30.49" default-y="-217.74"/>
        <stem>down</stem>
        <staff>2</staff>
        <notations>
          <tied type="stop"/>
          </notations>
        </note>
      <backup>
        <duration>6</duration>
        </backup>
      <note default-x="50.76" default-y="-10">
        <rest measure="yes"/>
        <duration>6</duration>
        <voice>9</voice>
        <staff>3</staff>
        </note>
      </measure>
    <measure number="5" width="196.54">
      <note default-x="17.23" default-y="-25">
        <pitch>
          <step>A</step>
          <octave>4</octave>
          </pitch>
        <duration>2</duration>
        <voice>1</voice>
        <type>quarter</type>
        <stem>up</stem>
        <staff>1</staff>
        <lyric number="1" default-y="-59.92" relative-y="-30">
          <syllabic>begin</syllabic>
          <text>Czy</text>
          </lyric>
        <lyric number="2" default-y="-83.63" relative-y="-30">
          <syllabic>single</syllabic>
          <text>Gdzie</text>
          </lyric>
        <lyric number="3" default-x="6.5" default-y="-107.34" relative-y="-30">
          <syllabic>begin</syllabic>
          <text>Z Bo</text>
          </lyric>
        </note>
      <note default-x="72.15" default-y="-25">
        <pitch>
          <step>A</step>
          <octave>4</octave>
          </pitch>
        <duration>2</duration>
        <voice>1</voice>
        <type>quarter</type>
        <stem>up</stem>
        <staff>1</staff>
        <lyric number="1" default-y="-59.92" relative-x="-9" relative-y="-30">
          <syllabic>end</syllabic>
          <text>sty</text>
          </lyric>
        <lyric number="2" default-y="-83.63" relative-y="-30">
          <syllabic>single</syllabic>
          <text>z lat</text>
          </lyric>
        <lyric number="3" default-x="6.5" default-y="-107.34" relative-y="-30">
          <syllabic>end</syllabic>
          <text>giem</text>
          </lyric>
        </note>
      <note default-x="114.57" default-y="-25">
        <pitch>
          <step>A</step>
          <octave>4</octave>
          </pitch>
        <duration>2</duration>
        <voice>1</voice>
        <type>quarter</type>
        <stem>up</stem>
        <staff>1</staff>
        <lyric number="1" default-y="-59.92" relative-x="2" relative-y="-30">
          <syllabic>single</syllabic>
          <text>w swym</text>
          </lyric>
        <lyric number="2" default-y="-83.63" relative-y="-30">
          <syllabic>begin</syllabic>
          <text>mło</text>
          </lyric>
        <lyric number="3" default-x="6.5" default-y="-107.34" relative-y="-30">
          <syllabic>begin</syllabic>
          <text>kró</text>
          </lyric>
        </note>
      <backup>
        <duration>6</duration>
        </backup>
      <note default-x="17.23" default-y="-35">
        <pitch>
          <step>F</step>
          <octave>4</octave>
          </pitch>
        <duration>6</duration>
        <voice>2</voice>
        <type>half</type>
        <dot default-x="35.23" default-y="-35"/>
        <stem>down</stem>
        <staff>1</staff>
        </note>
      <backup>
        <duration>6</duration>
        </backup>
      <note default-x="17.23" default-y="-182.74">
        <pitch>
          <step>C</step>
          <octave>4</octave>
          </pitch>
        <duration>4</duration>
        <voice>5</voice>
        <type>half</type>
        <stem>up</stem>
        <staff>2</staff>
        </note>
      <note default-x="114.57" default-y="-177.74">
        <pitch>
          <step>D</step>
          <octave>4</octave>
          </pitch>
        <duration>2</duration>
        <voice>5</voice>
        <type>quarter</type>
        <stem>up</stem>
        <staff>2</staff>
        </note>
      <backup>
        <duration>6</duration>
        </backup>
      <note default-x="17.23" default-y="-202.74">
        <pitch>
          <step>F</step>
          <octave>3</octave>
          </pitch>
        <duration>2</duration>
        <voice>6</voice>
        <type>quarter</type>
        <stem>down</stem>
        <staff>2</staff>
        </note>
      <note default-x="72.15" default-y="-207.74">
        <pitch>
          <step>E</step>
          <octave>3</octave>
          </pitch>
        <duration>2</duration>
        <voice>6</voice>
        <type>quarter</type>
        <stem>down</stem>
        <staff>2</staff>
        </note>
      <note default-x="114.57" default-y="-212.74">
        <pitch>
          <step>D</step>
          <octave>3</octave>
          </pitch>
        <duration>2</duration>
        <voice>6</voice>
        <type>quarter</type>
        <stem>down</stem>
        <staff>2</staff>
        </note>
      <backup>
        <duration>6</duration>
        </backup>
      <note default-x="90.87" default-y="-10">
        <rest measure="yes"/>
        <duration>6</duration>
        <voice>9</voice>
        <staff>3</staff>
        </note>
      </measure>
    <measure number="6" width="161.26">
      <note default-x="12.5" default-y="-15">
        <pitch>
          <step>C</step>
          <octave>5</octave>
          </pitch>
        <duration>2</duration>
        <voice>1</voice>
        <type>quarter</type>
        <stem>up</stem>
        <staff>1</staff>
        <lyric number="1" default-y="-59.92" relative-y="-30">
          <syllabic>begin</syllabic>
          <text>kan</text>
          </lyric>
        <lyric number="2" default-y="-83.63" relative-y="-30">
          <syllabic>end</syllabic>
          <text>dych</text>
          </lyric>
        <lyric number="3" default-x="6.5" default-y="-107.34" relative-y="-30">
          <syllabic>middle</syllabic>
          <text>lu</text>
          </lyric>
        </note>
      <note default-x="56.53" default-y="-20">
        <pitch>
          <step>B</step>
          <alter>-1</alter>
          <octave>4</octave>
          </pitch>
        <duration>2</duration>
        <voice>1</voice>
        <type>quarter</type>
        <stem>up</stem>
        <staff>1</staff>
        <lyric number="1" default-y="-59.92" relative-y="-30">
          <syllabic>middle</syllabic>
          <text>do</text>
          </lyric>
        <lyric number="2" default-y="-83.63" relative-y="-30">
          <syllabic>begin</syllabic>
          <text>kwia</text>
          </lyric>
        <lyric number="3" default-x="6.5" default-y="-107.34" relative-y="-30">
          <syllabic>middle</syllabic>
          <text>ją</text>
          </lyric>
        </note>
      <note default-x="107.5" default-y="-25">
        <pitch>
          <step>A</step>
          <octave>4</octave>
          </pitch>
        <duration>2</duration>
        <voice>1</voice>
        <type>quarter</type>
        <stem>up</stem>
        <staff>1</staff>
        <lyric number="1" default-x="0.4" default-y="-59.92" relative-y="-30">
          <syllabic>end</syllabic>
          <text>rze, *</text>
          </lyric>
        <lyric number="2" default-y="-83.63" relative-y="-30">
          <syllabic>end</syllabic>
          <text>tu, *</text>
          </lyric>
        <lyric number="3" default-x="16.17" default-y="-107.34" relative-y="-30">
          <syllabic>end</syllabic>
          <text>cy, *</text>
          </lyric>
        </note>
      <backup>
        <duration>6</duration>
        </backup>
      <note default-x="12.5" default-y="-40">
        <pitch>
          <step>E</step>
          <octave>4</octave>
          </pitch>
        <duration>6</duration>
        <voice>2</voice>
        <type>half</type>
        <dot default-x="30.49" default-y="-45"/>
        <stem>down</stem>
        <staff>1</staff>
        </note>
      <backup>
        <duration>6</duration>
        </backup>
      <note default-x="12.5" default-y="-197.74">
        <pitch>
          <step>G</step>
          <octave>3</octave>
          </pitch>
        <duration>4</duration>
        <voice>5</voice>
        <type>half</type>
        <stem>up</stem>
        <staff>2</staff>
        </note>
      <note default-x="107.5" default-y="-192.74">
        <pitch>
          <step>A</step>
          <octave>3</octave>
          </pitch>
        <duration>2</duration>
        <voice>5</voice>
        <type>quarter</type>
        <stem>up</stem>
        <staff>2</staff>
        </note>
      <backup>
        <duration>6</duration>
        </backup>
      <note default-x="12.5" default-y="-217.74">
        <pitch>
          <step>C</step>
          <octave>3</octave>
          </pitch>
        <duration>2</duration>
        <voice>6</voice>
        <type>quarter</type>
        <stem>down</stem>
        <staff>2</staff>
        </note>
      <note default-x="56.53" default-y="-212.74">
        <pitch>
          <step>D</step>
          <octave>3</octave>
          </pitch>
        <duration>2</duration>
        <voice>6</voice>
        <type>quarter</type>
        <stem>down</stem>
        <staff>2</staff>
        </note>
      <note default-x="107.5" default-y="-217.74">
        <pitch>
          <step>C</step>
          <octave>3</octave>
          </pitch>
        <duration>2</duration>
        <voice>6</voice>
        <type>quarter</type>
        <stem>down</stem>
        <staff>2</staff>
        </note>
      <backup>
        <duration>6</duration>
        </backup>
      <note default-x="73.23" default-y="-10">
        <rest measure="yes"/>
        <duration>6</duration>
        <voice>9</voice>
        <staff>3</staff>
        </note>
      </measure>
    <measure number="7" width="223.23">
      <print new-system="yes">
        <system-layout>
          <system-margins>
            <left-margin>0</left-margin>
            <right-margin>0</right-margin>
            </system-margins>
          <system-distance>65</system-distance>
          </system-layout>
        <staff-layout number="2">
          <staff-distance>161.37</staff-distance>
          </staff-layout>
        </print>
      <attributes>
        <staff-details number="3" print-object="no"/>
        </attributes>
      <note default-x="76.48" default-y="-30">
        <pitch>
          <step>G</step>
          <octave>4</octave>
          </pitch>
        <duration>2</duration>
        <voice>1</voice>
        <type>quarter</type>
        <stem>up</stem>
        <staff>1</staff>
        <lyric number="1" default-y="-69.52" relative-y="-30">
          <syllabic>begin</syllabic>
          <text>Wie</text>
          </lyric>
        <lyric number="2" default-y="-93.23" relative-y="-30">
          <syllabic>begin</syllabic>
          <text>Czy</text>
          </lyric>
        <lyric number="3" default-x="6.5" default-y="-116.94" relative-y="-30">
          <syllabic>single</syllabic>
          <text>Nam</text>
          </lyric>
        </note>
      <note default-x="124.79" default-y="-30">
        <pitch>
          <step>G</step>
          <octave>4</octave>
          </pitch>
        <duration>2</duration>
        <voice>1</voice>
        <type>quarter</type>
        <stem>up</stem>
        <staff>1</staff>
        <lyric number="1" default-y="-69.52" relative-y="-30">
          <syllabic>middle</syllabic>
          <text>czy</text>
          </lyric>
        <lyric number="2" default-y="-93.23" relative-y="-30">
          <syllabic>end</syllabic>
          <text>nisz</text>
          </lyric>
        <lyric number="3" default-x="6.5" default-y="-116.94" relative-y="-30">
          <syllabic>begin</syllabic>
          <text>dob</text>
          </lyric>
        </note>
      <note default-x="173.11" default-y="-30">
        <pitch>
          <step>G</step>
          <octave>4</octave>
          </pitch>
        <duration>2</duration>
        <voice>1</voice>
        <type>quarter</type>
        <stem>up</stem>
        <staff>1</staff>
        <lyric number="1" default-y="-69.52" relative-y="-30">
          <syllabic>end</syllabic>
          <text>sty</text>
          </lyric>
        <lyric number="2" default-y="-93.23" relative-y="-30">
          <syllabic>begin</syllabic>
          <text>za</text>
          </lyric>
        <lyric number="3" default-x="6.5" default-y="-116.94" relative-y="-30">
          <syllabic>end</syllabic>
          <text>rze</text>
          </lyric>
        </note>
      <backup>
        <duration>6</duration>
        </backup>
      <note default-x="76.48" default-y="-45">
        <pitch>
          <step>D</step>
          <octave>4</octave>
          </pitch>
        <duration>6</duration>
        <voice>2</voice>
        <type>half</type>
        <dot default-x="94.47" default-y="-45"/>
        <stem>down</stem>
        <staff>1</staff>
        </note>
      <backup>
        <duration>6</duration>
        </backup>
      <note default-x="76.48" default-y="-196.37">
        <pitch>
          <step>B</step>
          <alter>-1</alter>
          <octave>3</octave>
          </pitch>
        <duration>6</duration>
        <voice>5</voice>
        <type>half</type>
        <dot default-x="94.47" default-y="-196.37"/>
        <stem>up</stem>
        <staff>2</staff>
        </note>
      <backup>
        <duration>6</duration>
        </backup>
      <note default-x="76.48" default-y="-231.37">
        <pitch>
          <step>B</step>
          <alter>-1</alter>
          <octave>2</octave>
          </pitch>
        <duration>2</duration>
        <voice>6</voice>
        <type>quarter</type>
        <stem>down</stem>
        <staff>2</staff>
        </note>
      <note default-x="124.79" default-y="-236.37">
        <pitch>
          <step>A</step>
          <octave>2</octave>
          </pitch>
        <duration>2</duration>
        <voice>6</voice>
        <type>quarter</type>
        <stem>down</stem>
        <staff>2</staff>
        </note>
      <note default-x="173.11" default-y="-231.37">
        <pitch>
          <step>B</step>
          <alter>-1</alter>
          <octave>2</octave>
          </pitch>
        <duration>2</duration>
        <voice>6</voice>
        <type>quarter</type>
        <stem>down</stem>
        <staff>2</staff>
        </note>
      <backup>
        <duration>6</duration>
        </backup>
      <note default-x="129.95" default-y="-10">
        <rest measure="yes"/>
        <duration>6</duration>
        <voice>9</voice>
        <staff>3</staff>
        </note>
      </measure>
    <measure number="8" width="177.17">
      <note default-x="12.5" default-y="-25">
        <pitch>
          <step>A</step>
          <octave>4</octave>
          </pitch>
        <duration>2</duration>
        <voice>1</voice>
        <type>quarter</type>
        <stem>up</stem>
        <staff>1</staff>
        <lyric number="1" default-y="-69.52" relative-y="-30">
          <syllabic>single</syllabic>
          <text>cnót</text>
          </lyric>
        <lyric number="2" default-y="-93.23" relative-y="-30">
          <syllabic>end</syllabic>
          <text>pach</text>
          </lyric>
        <lyric number="3" default-x="6.5" default-y="-116.94" relative-y="-30">
          <syllabic>begin</syllabic>
          <text>ży</text>
          </lyric>
        </note>
      <note default-x="60.82" default-y="-30">
        <pitch>
          <step>G</step>
          <octave>4</octave>
          </pitch>
        <duration>2</duration>
        <voice>1</voice>
        <type>quarter</type>
        <stem>up</stem>
        <staff>1</staff>
        <lyric number="1" default-y="-69.52" relative-y="-30">
          <syllabic>begin</syllabic>
          <text>wzo</text>
          </lyric>
        <lyric number="2" default-y="-93.23" relative-y="-30">
          <syllabic>begin</syllabic>
          <text>świa</text>
          </lyric>
        <lyric number="3" default-x="6.5" default-y="-116.94" relative-y="-30">
          <syllabic>middle</syllabic>
          <text>czą</text>
          </lyric>
        </note>
      <note default-x="109.13" default-y="-35">
        <pitch>
          <step>F</step>
          <octave>4</octave>
          </pitch>
        <duration>1</duration>
        <voice>1</voice>
        <type>eighth</type>
        <stem>up</stem>
        <staff>1</staff>
        <beam number="1">begin</beam>
        <lyric number="1" default-x="0.4" default-y="-69.52" relative-x="11.44" relative-y="-30">
          <syllabic>end</syllabic>
          <text>rze, *</text>
          </lyric>
        <lyric number="2" default-y="-93.23" relative-y="-30">
          <syllabic>end</syllabic>
          <text>tu, *</text>
          </lyric>
        <lyric number="3" default-x="14.16" default-y="-116.94" relative-y="-30">
          <syllabic>end</syllabic>
          <text>cy *</text>
          </lyric>
        </note>
      <note default-x="141.34" default-y="-40">
        <pitch>
          <step>E</step>
          <octave>4</octave>
          </pitch>
        <duration>1</duration>
        <voice>1</voice>
        <type>eighth</type>
        <stem>up</stem>
        <staff>1</staff>
        <beam number="1">end</beam>
        </note>
      <backup>
        <duration>6</duration>
        </backup>
      <note default-x="12.5" default-y="-35">
        <pitch>
          <step>F</step>
          <octave>4</octave>
          </pitch>
        <duration>2</duration>
        <voice>2</voice>
        <type>quarter</type>
        <stem>down</stem>
        <staff>1</staff>
        </note>
      <note default-x="60.82" default-y="-45">
        <pitch>
          <step>D</step>
          <octave>4</octave>
          </pitch>
        <duration>2</duration>
        <voice>2</voice>
        <type>quarter</type>
        <stem>down</stem>
        <staff>1</staff>
        </note>
      <note default-x="109.13" default-y="-50">
        <pitch>
          <step>C</step>
          <octave>4</octave>
          </pitch>
        <duration>2</duration>
        <voice>2</voice>
        <type>quarter</type>
        <stem>down</stem>
        <staff>1</staff>
        </note>
      <backup>
        <duration>6</duration>
        </backup>
      <note default-x="12.5" default-y="-191.37">
        <pitch>
          <step>C</step>
          <octave>4</octave>
          </pitch>
        <duration>2</duration>
        <voice>5</voice>
        <type>quarter</type>
        <stem>up</stem>
        <staff>2</staff>
        </note>
      <note default-x="60.82" default-y="-206.37">
        <pitch>
          <step>G</step>
          <octave>3</octave>
          </pitch>
        <duration>4</duration>
        <voice>5</voice>
        <type>half</type>
        <stem>up</stem>
        <staff>2</staff>
        </note>
      <backup>
        <duration>6</duration>
        </backup>
      <note default-x="12.5" default-y="-236.37">
        <pitch>
          <step>A</step>
          <octave>2</octave>
          </pitch>
        <duration>2</duration>
        <voice>6</voice>
        <type>quarter</type>
        <stem>down</stem>
        <staff>2</staff>
        </note>
      <note default-x="60.82" default-y="-231.37">
        <pitch>
          <step>B</step>
          <octave>2</octave>
          </pitch>
        <duration>2</duration>
        <voice>6</voice>
        <type>quarter</type>
        <accidental>natural</accidental>
        <stem>down</stem>
        <staff>2</staff>
        </note>
      <note default-x="109.13" default-y="-226.37">
        <pitch>
          <step>C</step>
          <octave>3</octave>
          </pitch>
        <duration>2</duration>
        <voice>6</voice>
        <type>quarter</type>
        <stem>down</stem>
        <staff>2</staff>
        </note>
      <backup>
        <duration>6</duration>
        </backup>
      <note default-x="81.19" default-y="-10">
        <rest measure="yes"/>
        <duration>6</duration>
        <voice>9</voice>
        <staff>3</staff>
        </note>
      </measure>
    <measure number="9" width="159.75">
      <note default-x="13" default-y="-45">
        <pitch>
          <step>D</step>
          <octave>4</octave>
          </pitch>
        <duration>2</duration>
        <voice>1</voice>
        <type>quarter</type>
        <stem>up</stem>
        <staff>1</staff>
        <lyric number="1" default-y="-69.52" relative-y="-30">
          <syllabic>begin</syllabic>
          <text>Ja</text>
          </lyric>
        <lyric number="2" default-y="-93.23" relative-y="-30">
          <syllabic>begin</syllabic>
          <text>Nie</text>
          </lyric>
        <lyric number="3" default-x="6.5" default-y="-116.94" relative-y="-30">
          <syllabic>single</syllabic>
          <text>Być</text>
          </lyric>
        </note>
      <note default-x="61.32" default-y="-35">
        <pitch>
          <step>F</step>
          <octave>4</octave>
          </pitch>
        <duration>2</duration>
        <voice>1</voice>
        <type>quarter</type>
        <stem>up</stem>
        <staff>1</staff>
        <lyric number="1" default-y="-69.52" relative-y="-30">
          <syllabic>end</syllabic>
          <text>nie</text>
          </lyric>
        <lyric number="2" default-y="-93.23" relative-y="-30">
          <syllabic>middle</syllabic>
          <text>win</text>
          </lyric>
        <lyric number="3" default-x="6.5" default-y="-116.94" relative-y="-30">
          <syllabic>begin</syllabic>
          <text>ra</text>
          </lyric>
        </note>
      <note default-x="109.63" default-y="-30">
        <pitch>
          <step>G</step>
          <octave>4</octave>
          </pitch>
        <duration>2</duration>
        <voice>1</voice>
        <type>quarter</type>
        <stem>up</stem>
        <staff>1</staff>
        <lyric number="1" default-y="-69.52" relative-y="-30">
          <syllabic>begin</syllabic>
          <text>Kan</text>
          </lyric>
        <lyric number="2" default-y="-93.23" relative-y="-30">
          <syllabic>middle</syllabic>
          <text>noś</text>
          </lyric>
        <lyric number="3" default-x="6.5" default-y="-116.94" relative-y="-30">
          <syllabic>middle</syllabic>
          <text>tun</text>
          </lyric>
        </note>
      <backup>
        <duration>6</duration>
        </backup>
      <note default-x="24.99" default-y="-50">
        <pitch>
          <step>C</step>
          <octave>4</octave>
          </pitch>
        <duration>4</duration>
        <voice>2</voice>
        <type>half</type>
        <stem>down</stem>
        <staff>1</staff>
        </note>
      <note default-x="109.63" default-y="-40">
        <pitch>
          <step>E</step>
          <octave>4</octave>
          </pitch>
        <duration>2</duration>
        <voice>2</voice>
        <type>quarter</type>
        <stem>down</stem>
        <staff>1</staff>
        </note>
      <backup>
        <duration>6</duration>
        </backup>
      <note default-x="13" default-y="-201.37">
        <pitch>
          <step>A</step>
          <octave>3</octave>
          </pitch>
        <duration>4</duration>
        <voice>5</voice>
        <type>half</type>
        <stem>up</stem>
        <staff>2</staff>
        </note>
      <note default-x="109.63" default-y="-191.37">
        <pitch>
          <step>C</step>
          <octave>4</octave>
          </pitch>
        <duration>2</duration>
        <tie type="start"/>
        <voice>5</voice>
        <type>quarter</type>
        <stem>up</stem>
        <staff>2</staff>
        <notations>
          <tied type="start"/>
          </notations>
        </note>
      <backup>
        <duration>6</duration>
        </backup>
      <note default-x="13" default-y="-246.37">
        <pitch>
          <step>F</step>
          <octave>2</octave>
          </pitch>
        <duration>4</duration>
        <voice>6</voice>
        <type>half</type>
        <stem>down</stem>
        <staff>2</staff>
        </note>
      <note default-x="109.63" default-y="-251.37">
        <pitch>
          <step>E</step>
          <octave>2</octave>
          </pitch>
        <duration>2</duration>
        <voice>6</voice>
        <type>quarter</type>
        <stem>down</stem>
        <staff>2</staff>
        </note>
      <backup>
        <duration>6</duration>
        </backup>
      <note default-x="72.48" default-y="-10">
        <rest measure="yes"/>
        <duration>6</duration>
        <voice>9</voice>
        <staff>3</staff>
        </note>
      </measure>
    <measure number="10" width="142.24">
      <note default-x="19.65" default-y="-25">
        <pitch>
          <step>A</step>
          <octave>4</octave>
          </pitch>
        <duration>4</duration>
        <voice>1</voice>
        <type>half</type>
        <stem>up</stem>
        <staff>1</staff>
        <lyric number="1" default-y="-69.52" relative-y="-30">
          <syllabic>end</syllabic>
          <text>ty,</text>
          </lyric>
        <lyric number="2" default-x="0.4" default-y="-93.23" relative-y="-30">
          <syllabic>end</syllabic>
          <text>ci,</text>
          </lyric>
        <lyric number="3" default-x="8.71" default-y="-116.94" relative-y="-30">
          <syllabic>end</syllabic>
          <text>kiem,</text>
          </lyric>
        </note>
      <note default-x="92.13" default-y="-10">
        <rest/>
        <duration>2</duration>
        <voice>1</voice>
        <type>quarter</type>
        <staff>1</staff>
        </note>
      <backup>
        <duration>6</duration>
        </backup>
      <note default-x="19.65" default-y="-35">
        <pitch>
          <step>F</step>
          <octave>4</octave>
          </pitch>
        <duration>6</duration>
        <voice>2</voice>
        <type>half</type>
        <dot default-x="37.65" default-y="-35"/>
        <stem>down</stem>
        <staff>1</staff>
        </note>
      <backup>
        <duration>6</duration>
        </backup>
      <note default-x="19.65" default-y="-191.37">
        <pitch>
          <step>C</step>
          <octave>4</octave>
          </pitch>
        <duration>6</duration>
        <tie type="stop"/>
        <voice>5</voice>
        <type>half</type>
        <dot default-x="37.65" default-y="-186.37"/>
        <stem>up</stem>
        <staff>2</staff>
        <notations>
          <tied type="stop"/>
          </notations>
        </note>
      <backup>
        <duration>6</duration>
        </backup>
      <note default-x="19.65" default-y="-256.37">
        <pitch>
          <step>D</step>
          <octave>2</octave>
          </pitch>
        <duration>4</duration>
        <voice>6</voice>
        <type>half</type>
        <stem>down</stem>
        <staff>2</staff>
        </note>
      <note default-x="92.13" default-y="-251.37">
        <pitch>
          <step>E</step>
          <octave>2</octave>
          </pitch>
        <duration>2</duration>
        <voice>6</voice>
        <type>quarter</type>
        <stem>down</stem>
        <staff>2</staff>
        </note>
      <backup>
        <duration>6</duration>
        </backup>
      <note default-x="63.73" default-y="-10">
        <rest measure="yes"/>
        <duration>6</duration>
        <voice>9</voice>
        <staff>3</staff>
        </note>
      </measure>
    <measure number="11" width="175.36">
      <note default-x="12.5" default-y="-25">
        <pitch>
          <step>A</step>
          <octave>4</octave>
          </pitch>
        <duration>2</duration>
        <voice>1</voice>
        <type>quarter</type>
        <stem>up</stem>
        <staff>1</staff>
        <lyric number="1" default-y="-69.52" relative-y="-30">
          <syllabic>begin</syllabic>
          <text>Ja</text>
          </lyric>
        <lyric number="2" default-y="-93.23" relative-y="-30">
          <syllabic>begin</syllabic>
          <text>nie</text>
          </lyric>
        <lyric number="3" default-x="6.5" default-y="-116.94" relative-y="-30">
          <syllabic>single</syllabic>
          <text>być</text>
          </lyric>
        </note>
      <note default-x="60.82" default-y="-30">
        <pitch>
          <step>G</step>
          <octave>4</octave>
          </pitch>
        <duration>2</duration>
        <voice>1</voice>
        <type>quarter</type>
        <stem>up</stem>
        <staff>1</staff>
        <lyric number="1" default-y="-69.52" relative-y="-30">
          <syllabic>end</syllabic>
          <text>nie</text>
          </lyric>
        <lyric number="2" default-y="-93.23" relative-y="-30">
          <syllabic>middle</syllabic>
          <text>win</text>
          </lyric>
        <lyric number="3" default-x="6.5" default-y="-116.94" relative-y="-30">
          <syllabic>begin</syllabic>
          <text>ra</text>
          </lyric>
        </note>
      <note default-x="109.13" default-y="-35">
        <pitch>
          <step>F</step>
          <octave>4</octave>
          </pitch>
        <duration>1</duration>
        <voice>1</voice>
        <type>eighth</type>
        <stem>up</stem>
        <staff>1</staff>
        <beam number="1">begin</beam>
        <lyric number="1" default-y="-69.52" relative-y="-30">
          <syllabic>begin</syllabic>
          <text>Ka</text>
          </lyric>
        <lyric number="2" default-y="-93.23" relative-y="-30">
          <syllabic>middle</syllabic>
          <text>noś</text>
          </lyric>
        <lyric number="3" default-y="-116.94" relative-y="-30">
          <syllabic>middle</syllabic>
          <text>tun</text>
          </lyric>
        </note>
      <note default-x="141.34" default-y="-40">
        <pitch>
          <step>E</step>
          <octave>4</octave>
          </pitch>
        <duration>1</duration>
        <voice>1</voice>
        <type>eighth</type>
        <stem>up</stem>
        <staff>1</staff>
        <beam number="1">end</beam>
        </note>
      <backup>
        <duration>6</duration>
        </backup>
      <note default-x="12.5" default-y="-50">
        <pitch>
          <step>C</step>
          <octave>4</octave>
          </pitch>
        <duration>4</duration>
        <voice>2</voice>
        <type>half</type>
        <stem>down</stem>
        <staff>1</staff>
        </note>
      <note default-x="109.13" default-y="-50">
        <pitch>
          <step>C</step>
          <alter>1</alter>
          <octave>4</octave>
          </pitch>
        <duration>2</duration>
        <voice>2</voice>
        <type>quarter</type>
        <accidental>sharp</accidental>
        <stem>down</stem>
        <staff>1</staff>
        </note>
      <backup>
        <duration>6</duration>
        </backup>
      <note default-x="12.5" default-y="-201.37">
        <pitch>
          <step>A</step>
          <octave>3</octave>
          </pitch>
        <duration>2</duration>
        <voice>5</voice>
        <type>quarter</type>
        <stem>up</stem>
        <staff>2</staff>
        </note>
      <note default-x="60.82" default-y="-196.37">
        <pitch>
          <step>B</step>
          <alter>-1</alter>
          <octave>3</octave>
          </pitch>
        <duration>2</duration>
        <voice>5</voice>
        <type>quarter</type>
        <stem>up</stem>
        <staff>2</staff>
        </note>
      <note default-x="109.13" default-y="-206.37">
        <pitch>
          <step>G</step>
          <octave>3</octave>
          </pitch>
        <duration>2</duration>
        <voice>5</voice>
        <type>quarter</type>
        <stem>up</stem>
        <staff>2</staff>
        </note>
      <backup>
        <duration>6</duration>
        </backup>
      <note default-x="12.5" default-y="-246.37">
        <pitch>
          <step>F</step>
          <octave>2</octave>
          </pitch>
        <duration>2</duration>
        <voice>6</voice>
        <type>quarter</type>
        <stem>down</stem>
        <staff>2</staff>
        </note>
      <note default-x="60.82" default-y="-241.37">
        <pitch>
          <step>G</step>
          <octave>2</octave>
          </pitch>
        <duration>2</duration>
        <voice>6</voice>
        <type>quarter</type>
        <stem>down</stem>
        <staff>2</staff>
        </note>
      <note default-x="109.13" default-y="-236.37">
        <pitch>
          <step>A</step>
          <octave>2</octave>
          </pitch>
        <duration>2</duration>
        <voice>6</voice>
        <type>quarter</type>
        <stem>down</stem>
        <staff>2</staff>
        </note>
      <backup>
        <duration>6</duration>
        </backup>
      <note default-x="80.28" default-y="-10">
        <rest measure="yes"/>
        <duration>6</duration>
        <voice>9</voice>
        <staff>3</staff>
        </note>
      </measure>
    <measure number="12" width="151.44">
      <note default-x="19.65" default-y="-45">
        <pitch>
          <step>D</step>
          <octave>4</octave>
          </pitch>
        <duration>4</duration>
        <voice>1</voice>
        <type>half</type>
        <stem>up</stem>
        <staff>1</staff>
        <lyric number="1" default-x="0.4" default-y="-69.52" relative-y="-30">
          <syllabic>end</syllabic>
          <text>nty.</text>
          </lyric>
        <lyric number="2" default-x="0.4" default-y="-93.23" relative-y="-30">
          <syllabic>end</syllabic>
          <text>ci.</text>
          </lyric>
        <lyric number="3" default-x="8.51" default-y="-116.94" relative-y="-30">
          <syllabic>end</syllabic>
          <text>kiem.</text>
          </lyric>
        </note>
      <note default-x="92.13" default-y="0">
        <rest/>
        <duration>2</duration>
        <voice>1</voice>
        <type>quarter</type>
        <staff>1</staff>
        </note>
      <backup>
        <duration>6</duration>
        </backup>
      <note default-x="19.65" default-y="-45">
        <pitch>
          <step>D</step>
          <octave>4</octave>
          </pitch>
        <duration>4</duration>
        <voice>2</voice>
        <type>half</type>
        <stem>down</stem>
        <staff>1</staff>
        </note>
      <note default-x="92.13" default-y="-40">
        <rest/>
        <duration>2</duration>
        <voice>2</voice>
        <type>quarter</type>
        <staff>1</staff>
        </note>
      <backup>
        <duration>6</duration>
        </backup>
      <note default-x="19.65" default-y="-211.37">
        <pitch>
          <step>F</step>
          <octave>3</octave>
          </pitch>
        <duration>4</duration>
        <voice>5</voice>
        <type>half</type>
        <stem>up</stem>
        <staff>2</staff>
        </note>
      <note default-x="92.13" default-y="-201.37">
        <rest/>
        <duration>2</duration>
        <voice>5</voice>
        <type>quarter</type>
        <staff>2</staff>
        </note>
      <backup>
        <duration>6</duration>
        </backup>
      <note default-x="19.65" default-y="-221.37">
        <pitch>
          <step>D</step>
          <octave>3</octave>
          </pitch>
        <duration>4</duration>
        <voice>6</voice>
        <type>half</type>
        <stem>down</stem>
        <staff>2</staff>
        </note>
      <note default-x="92.13" default-y="-241.37">
        <rest/>
        <duration>2</duration>
        <voice>6</voice>
        <type>quarter</type>
        <staff>2</staff>
        </note>
      <backup>
        <duration>6</duration>
        </backup>
      <note default-x="63.73" default-y="-10">
        <rest measure="yes"/>
        <duration>6</duration>
        <voice>9</voice>
        <staff>3</staff>
        </note>
      <barline location="right">
        <bar-style>light-heavy</bar-style>
        </barline>
      </measure>
    <measure number="13" width="338.28">
      <print new-page="yes">
        <system-layout>
          <system-margins>
            <left-margin>0</left-margin>
            <right-margin>0</right-margin>
            </system-margins>
          <top-system-distance>93.69</top-system-distance>
          </system-layout>
        <staff-layout number="2">
          <staff-distance>143.39</staff-distance>
          </staff-layout>
        </print>
      <barline location="left">
        <bar-style>heavy-light</bar-style>
        <repeat direction="forward"/>
        </barline>
      <attributes>
        <key>
          <fifths>1</fifths>
          </key>
        <time symbol="common">
          <beats>4</beats>
          <beat-type>4</beat-type>
          </time>
        <staff-details number="3" print-object="no"/>
        </attributes>
      <direction placement="above">
        <direction-type>
          <words relative-x="-40.96" relative-y="20.32" font-size="18">Przezacna perło</words>
          </direction-type>
        <staff>1</staff>
        </direction>
      <note default-x="138.81" default-y="-30">
        <pitch>
          <step>G</step>
          <octave>4</octave>
          </pitch>
        <duration>4</duration>
        <voice>1</voice>
        <type>half</type>
        <stem>up</stem>
        <staff>1</staff>
        <lyric number="1" default-x="-20.56" default-y="-79.68" relative-y="-30">
          <syllabic>begin</syllabic>
          <text>1. Prze</text>
          </lyric>
        <lyric number="2" default-x="6.5" default-y="-103.39" relative-y="-30">
          <syllabic>single</syllabic>
          <text>o</text>
          </lyric>
        </note>
      <note default-x="223.53" default-y="-45">
        <pitch>
          <step>D</step>
          <octave>4</octave>
          </pitch>
        <duration>2</duration>
        <voice>1</voice>
        <type>quarter</type>
        <stem>up</stem>
        <staff>1</staff>
        <lyric number="1" default-x="6.5" default-y="-79.68" relative-y="-30">
          <syllabic>middle</syllabic>
          <text>za</text>
          </lyric>
        <lyric number="2" default-x="6.5" default-y="-103.39" relative-y="-30">
          <syllabic>begin</syllabic>
          <text>Ja</text>
          </lyric>
        </note>
      <note default-x="280" default-y="-50">
        <pitch>
          <step>C</step>
          <octave>4</octave>
          </pitch>
        <duration>2</duration>
        <voice>1</voice>
        <type>quarter</type>
        <stem>up</stem>
        <staff>1</staff>
        <lyric number="1" default-x="6.5" default-y="-79.68" relative-y="-30">
          <syllabic>end</syllabic>
          <text>cna</text>
          </lyric>
        <lyric number="2" default-x="6.5" default-y="-103.39" relative-y="-30">
          <syllabic>end</syllabic>
          <text>nie</text>
          </lyric>
        </note>
      <backup>
        <duration>8</duration>
        </backup>
      <note default-x="138.81" default-y="-203.39">
        <pitch>
          <step>D</step>
          <octave>3</octave>
          </pitch>
        <duration>4</duration>
        <voice>5</voice>
        <type>half</type>
        <stem>up</stem>
        <staff>2</staff>
        </note>
      <note default-x="223.53" default-y="-198.39">
        <pitch>
          <step>E</step>
          <octave>3</octave>
          </pitch>
        <duration>4</duration>
        <voice>5</voice>
        <type>half</type>
        <stem>up</stem>
        <staff>2</staff>
        </note>
      <backup>
        <duration>8</duration>
        </backup>
      <note default-x="138.81" default-y="-213.39">
        <pitch>
          <step>B</step>
          <octave>2</octave>
          </pitch>
        <duration>4</duration>
        <voice>6</voice>
        <type>half</type>
        <stem>down</stem>
        <staff>2</staff>
        </note>
      <note default-x="223.53" default-y="-218.39">
        <pitch>
          <step>A</step>
          <octave>2</octave>
          </pitch>
        <duration>4</duration>
        <voice>6</voice>
        <type>half</type>
        <stem>down</stem>
        <staff>2</staff>
        </note>
      <backup>
        <duration>8</duration>
        </backup>
      <note default-x="210.06" default-y="-10">
        <rest measure="yes"/>
        <duration>8</duration>
        <voice>9</voice>
        <staff>3</staff>
        </note>
      </measure>
    <measure number="14" width="211.96">
      <note default-x="12.5" default-y="-55">
        <pitch>
          <step>B</step>
          <octave>3</octave>
          </pitch>
        <duration>2</duration>
        <voice>1</voice>
        <type>quarter</type>
        <stem>up</stem>
        <staff>1</staff>
        <notations>
          <slur type="start" bezier-x="8.876931" bezier-y="15.634753" number="1"/>
          </notations>
        <lyric number="1" default-y="-79.68" relative-y="-30">
          <syllabic>begin</syllabic>
          <text>pe</text>
          </lyric>
        <lyric number="2" default-y="-103.39" relative-y="-30">
          <syllabic>begin</syllabic>
          <text>Kan</text>
          </lyric>
        </note>
      <note default-x="68.98" default-y="-40">
        <pitch>
          <step>E</step>
          <octave>4</octave>
          </pitch>
        <duration>2</duration>
        <voice>1</voice>
        <type>quarter</type>
        <stem>up</stem>
        <staff>1</staff>
        <notations>
          <slur type="stop" number="1" bezier-x="-16.685424" bezier-y="6.69642"/>
          </notations>
        </note>
      <note default-x="125.45" default-y="-45">
        <pitch>
          <step>D</step>
          <octave>4</octave>
          </pitch>
        <duration>4</duration>
        <voice>1</voice>
        <type>half</type>
        <stem>up</stem>
        <staff>1</staff>
        <lyric number="1" default-x="6.5" default-y="-79.68" relative-y="-30">
          <syllabic>end</syllabic>
          <text>rło</text>
          </lyric>
        <lyric number="2" default-x="7.91" default-y="-103.39" relative-y="-30">
          <syllabic>end</syllabic>
          <text>ty,</text>
          </lyric>
        </note>
      <backup>
        <duration>8</duration>
        </backup>
      <note default-x="12.5" default-y="-65">
        <pitch>
          <step>G</step>
          <octave>3</octave>
          </pitch>
        <duration>4</duration>
        <voice>2</voice>
        <type>half</type>
        <stem>down</stem>
        <staff>1</staff>
        </note>
      <note default-x="125.45" default-y="-60">
        <pitch>
          <step>A</step>
          <octave>3</octave>
          </pitch>
        <duration>4</duration>
        <voice>2</voice>
        <type>half</type>
        <stem>down</stem>
        <staff>1</staff>
        </note>
      <backup>
        <duration>8</duration>
        </backup>
      <note default-x="12.5" default-y="-188.39">
        <pitch>
          <step>G</step>
          <octave>3</octave>
          </pitch>
        <duration>4</duration>
        <voice>5</voice>
        <type>half</type>
        <stem>up</stem>
        <staff>2</staff>
        </note>
      <note default-x="125.45" default-y="-193.39">
        <pitch>
          <step>F</step>
          <alter>1</alter>
          <octave>3</octave>
          </pitch>
        <duration>4</duration>
        <voice>5</voice>
        <type>half</type>
        <stem>up</stem>
        <staff>2</staff>
        </note>
      <backup>
        <duration>8</duration>
        </backup>
      <note default-x="12.5" default-y="-223.39">
        <pitch>
          <step>G</step>
          <octave>2</octave>
          </pitch>
        <duration>4</duration>
        <voice>6</voice>
        <type>half</type>
        <stem>down</stem>
        <staff>2</staff>
        </note>
      <note default-x="125.45" default-y="-203.39">
        <pitch>
          <step>D</step>
          <octave>3</octave>
          </pitch>
        <duration>4</duration>
        <voice>6</voice>
        <type>half</type>
        <stem>down</stem>
        <staff>2</staff>
        </note>
      <backup>
        <duration>8</duration>
        </backup>
      <note default-x="98.59" default-y="-10">
        <rest measure="yes"/>
        <duration>8</duration>
        <voice>9</voice>
        <staff>3</staff>
        </note>
      </measure>
    <measure number="15" width="248.97">
      <note default-x="21.27" default-y="-30">
        <pitch>
          <step>G</step>
          <octave>4</octave>
          </pitch>
        <duration>2</duration>
        <voice>1</voice>
        <type>quarter</type>
        <stem>up</stem>
        <staff>1</staff>
        <lyric number="1" default-x="6.5" default-y="-79.68" relative-y="-30">
          <syllabic>begin</syllabic>
          <text>w nie</text>
          </lyric>
        <lyric number="2" default-x="6.5" default-y="-103.39" relative-y="-30">
          <syllabic>begin</syllabic>
          <text>świę</text>
          </lyric>
        </note>
      <note default-x="77.74" default-y="-20">
        <pitch>
          <step>B</step>
          <octave>4</octave>
          </pitch>
        <duration>2</duration>
        <voice>1</voice>
        <type>quarter</type>
        <stem>up</stem>
        <staff>1</staff>
        <lyric number="1" default-x="6.5" default-y="-79.68" relative-y="-30">
          <syllabic>middle</syllabic>
          <text>bies</text>
          </lyric>
        <lyric number="2" default-x="6.5" default-y="-103.39" relative-y="-30">
          <syllabic>end</syllabic>
          <text>ty</text>
          </lyric>
        </note>
      <note default-x="134.22" default-y="-25">
        <pitch>
          <step>A</step>
          <octave>4</octave>
          </pitch>
        <duration>2</duration>
        <voice>1</voice>
        <type>quarter</type>
        <stem>up</stem>
        <staff>1</staff>
        <lyric number="1" default-x="6.5" default-y="-79.68" relative-y="-30">
          <syllabic>end</syllabic>
          <text>kiej</text>
          </lyric>
        <lyric number="2" default-x="6.5" default-y="-103.39" relative-y="-30">
          <syllabic>single</syllabic>
          <text>nasz</text>
          </lyric>
        </note>
      <note default-x="190.69" default-y="-30">
        <pitch>
          <step>G</step>
          <octave>4</octave>
          </pitch>
        <duration>2</duration>
        <voice>1</voice>
        <type>quarter</type>
        <stem>up</stem>
        <staff>1</staff>
        <lyric number="1" default-x="6.5" default-y="-79.68" relative-y="-30">
          <syllabic>begin</syllabic>
          <text>ko</text>
          </lyric>
        <lyric number="2" default-x="6.5" default-y="-103.39" relative-y="-30">
          <syllabic>begin</syllabic>
          <text>pa</text>
          </lyric>
        </note>
      <backup>
        <duration>8</duration>
        </backup>
      <note default-x="21.27" default-y="-45">
        <pitch>
          <step>D</step>
          <octave>4</octave>
          </pitch>
        <duration>4</duration>
        <voice>2</voice>
        <type>half</type>
        <stem>down</stem>
        <staff>1</staff>
        </note>
      <note default-x="134.22" default-y="-40">
        <pitch>
          <step>E</step>
          <octave>4</octave>
          </pitch>
        <duration>4</duration>
        <voice>2</voice>
        <type>half</type>
        <stem>down</stem>
        <staff>1</staff>
        </note>
      <backup>
        <duration>8</duration>
        </backup>
      <note default-x="20.3" default-y="-188.39">
        <pitch>
          <step>G</step>
          <octave>3</octave>
          </pitch>
        <duration>8</duration>
        <voice>5</voice>
        <type>whole</type>
        <staff>2</staff>
        </note>
      <backup>
        <duration>8</duration>
        </backup>
      <note default-x="21.27" default-y="-213.39">
        <pitch>
          <step>B</step>
          <octave>2</octave>
          </pitch>
        <duration>4</duration>
        <voice>6</voice>
        <type>half</type>
        <stem>down</stem>
        <staff>2</staff>
        </note>
      <note default-x="134.22" default-y="-208.39">
        <pitch>
          <step>C</step>
          <octave>3</octave>
          </pitch>
        <duration>4</duration>
        <voice>6</voice>
        <type>half</type>
        <stem>down</stem>
        <staff>2</staff>
        </note>
      <backup>
        <duration>8</duration>
        </backup>
      <note default-x="117.09" default-y="-10">
        <rest measure="yes"/>
        <duration>8</duration>
        <voice>9</voice>
        <staff>3</staff>
        </note>
      <direction placement="above" system="only-top">
        <direction-type>
          <words relative-x="3.38" relative-y="37.97" font-size="8">św. Jana Kantego, prezbitera
</words>
          <words> 20 października</words>
          </direction-type>
        <offset>-5</offset>
        <staff>1</staff>
        </direction>
      </measure>
    <measure number="16" width="229.98">
      <note default-x="13.46" default-y="-35">
        <pitch>
          <step>F</step>
          <alter>1</alter>
          <octave>4</octave>
          </pitch>
        <duration>2</duration>
        <voice>1</voice>
        <type>quarter</type>
        <stem>up</stem>
        <staff>1</staff>
        <notations>
          <slur type="start" bezier-x="11.048931" bezier-y="13.364676" number="1"/>
          </notations>
        <lyric number="1" default-y="-79.68" relative-y="-30">
          <syllabic>middle</syllabic>
          <text>ro</text>
          </lyric>
        <lyric number="2" default-y="-103.39" relative-y="-30">
          <syllabic>middle</syllabic>
          <text>tro</text>
          </lyric>
        </note>
      <note default-x="69.94" default-y="-25">
        <pitch>
          <step>A</step>
          <octave>4</octave>
          </pitch>
        <duration>2</duration>
        <voice>1</voice>
        <type>quarter</type>
        <stem>up</stem>
        <staff>1</staff>
        <notations>
          <slur type="stop" number="1" bezier-x="-14.513424" bezier-y="9.489676"/>
          </notations>
        </note>
      <note default-x="126.41" default-y="-30">
        <pitch>
          <step>G</step>
          <octave>4</octave>
          </pitch>
        <duration>4</duration>
        <voice>1</voice>
        <type>half</type>
        <stem>up</stem>
        <staff>1</staff>
        <lyric number="1" default-x="16.98" default-y="-79.68" relative-y="-30">
          <syllabic>end</syllabic>
          <text>nie, *</text>
          </lyric>
        <lyric number="2" default-x="16.98" default-y="-103.39" relative-y="-30">
          <syllabic>end</syllabic>
          <text>nie, *</text>
          </lyric>
        </note>
      <backup>
        <duration>8</duration>
        </backup>
      <note default-x="12.5" default-y="-45">
        <pitch>
          <step>D</step>
          <octave>4</octave>
          </pitch>
        <duration>8</duration>
        <voice>2</voice>
        <type>whole</type>
        <staff>1</staff>
        </note>
      <backup>
        <duration>8</duration>
        </backup>
      <note default-x="13.46" default-y="-173.39">
        <pitch>
          <step>C</step>
          <octave>4</octave>
          </pitch>
        <duration>4</duration>
        <voice>5</voice>
        <type>half</type>
        <stem>up</stem>
        <staff>2</staff>
        </note>
      <note default-x="126.41" default-y="-178.39">
        <pitch>
          <step>B</step>
          <octave>3</octave>
          </pitch>
        <duration>4</duration>
        <voice>5</voice>
        <type>half</type>
        <stem>up</stem>
        <staff>2</staff>
        </note>
      <backup>
        <duration>8</duration>
        </backup>
      <note default-x="13.46" default-y="-203.39">
        <pitch>
          <step>D</step>
          <octave>3</octave>
          </pitch>
        <duration>4</duration>
        <voice>6</voice>
        <type>half</type>
        <stem>down</stem>
        <staff>2</staff>
        </note>
      <note default-x="126.41" default-y="-188.39">
        <pitch>
          <step>G</step>
          <octave>3</octave>
          </pitch>
        <duration>4</duration>
        <voice>6</voice>
        <type>half</type>
        <stem>down</stem>
        <staff>2</staff>
        </note>
      <backup>
        <duration>8</duration>
        </backup>
      <note default-x="99.07" default-y="-10">
        <rest measure="yes"/>
        <duration>8</duration>
        <voice>9</voice>
        <staff>3</staff>
        </note>
      <direction placement="above" system="only-top">
        <direction-type>
          <words relative-x="-1.85" relative-y="34.08">h.: A. Skutnik</words>
          </direction-type>
        <offset>-5</offset>
        <staff>1</staff>
        </direction>
      <barline location="right">
        <bar-style>light-heavy</bar-style>
        <repeat direction="backward"/>
        </barline>
      </measure>
    <measure number="17" width="219.41">
      <print new-system="yes">
        <system-layout>
          <system-margins>
            <left-margin>0</left-margin>
            <right-margin>0</right-margin>
            </system-margins>
          <system-distance>55.41</system-distance>
          </system-layout>
        <staff-layout number="2">
          <staff-distance>118.15</staff-distance>
          </staff-layout>
        </print>
      <attributes>
        <staff-details number="3" print-object="no"/>
        </attributes>
      <note default-x="78.11" default-y="-20">
        <pitch>
          <step>B</step>
          <octave>4</octave>
          </pitch>
        <duration>4</duration>
        <voice>1</voice>
        <type>half</type>
        <stem>up</stem>
        <staff>1</staff>
        <lyric number="2" default-x="6.5" default-y="-64.92" relative-y="-30">
          <syllabic>begin</syllabic>
          <text>mię</text>
          </lyric>
        </note>
      <note default-x="137.9" default-y="-20">
        <pitch>
          <step>B</step>
          <octave>4</octave>
          </pitch>
        <duration>2</duration>
        <voice>1</voice>
        <type>quarter</type>
        <stem>up</stem>
        <staff>1</staff>
        <lyric number="2" default-x="6.5" default-y="-64.92" relative-y="-30">
          <syllabic>end</syllabic>
          <text>dzy</text>
          </lyric>
        </note>
      <note default-x="177.76" default-y="-10">
        <pitch>
          <step>D</step>
          <octave>5</octave>
          </pitch>
        <duration>2</duration>
        <voice>1</voice>
        <type>quarter</type>
        <stem>up</stem>
        <staff>1</staff>
        <lyric number="2" default-x="6.5" default-y="-64.92" relative-y="-30">
          <syllabic>begin</syllabic>
          <text>in</text>
          </lyric>
        </note>
      <backup>
        <duration>8</duration>
        </backup>
      <note default-x="78.11" default-y="-45">
        <pitch>
          <step>D</step>
          <octave>4</octave>
          </pitch>
        <duration>4</duration>
        <voice>2</voice>
        <type>half</type>
        <stem>down</stem>
        <staff>1</staff>
        </note>
      <note default-x="137.9" default-y="-45">
        <pitch>
          <step>D</step>
          <octave>4</octave>
          </pitch>
        <duration>2</duration>
        <voice>2</voice>
        <type>quarter</type>
        <stem>down</stem>
        <staff>1</staff>
        </note>
      <note default-x="177.76" default-y="-35">
        <pitch>
          <step>F</step>
          <alter>1</alter>
          <octave>4</octave>
          </pitch>
        <duration>2</duration>
        <voice>2</voice>
        <type>quarter</type>
        <stem>down</stem>
        <staff>1</staff>
        </note>
      <backup>
        <duration>8</duration>
        </backup>
      <direction placement="below">
        <direction-type>
          <words default-y="-40" relative-x="-77.42" relative-y="-62.38">2. Ciebie za przykład uczonym podała *
</words>
          <words>    ręka niebieska, gdy odmalowała *
</words>
          <words>    świetlany w Tobie wzór doskonałego * 
</words>
          <words>    życia naszego
</words>
          <words></words>
          </direction-type>
        <staff>2</staff>
        </direction>
      <note default-x="78.11" default-y="-163.15">
        <pitch>
          <step>G</step>
          <octave>3</octave>
          </pitch>
        <duration>4</duration>
        <voice>5</voice>
        <type>half</type>
        <stem>up</stem>
        <staff>2</staff>
        </note>
      <note default-x="137.9" default-y="-168.15">
        <pitch>
          <step>F</step>
          <alter>1</alter>
          <octave>3</octave>
          </pitch>
        <duration>4</duration>
        <voice>5</voice>
        <type>half</type>
        <stem>up</stem>
        <staff>2</staff>
        </note>
      <backup>
        <duration>8</duration>
        </backup>
      <note default-x="78.11" default-y="-198.15">
        <pitch>
          <step>G</step>
          <octave>2</octave>
          </pitch>
        <duration>4</duration>
        <voice>6</voice>
        <type>half</type>
        <stem>down</stem>
        <staff>2</staff>
        </note>
      <note default-x="137.9" default-y="-193.15">
        <pitch>
          <step>A</step>
          <octave>2</octave>
          </pitch>
        <duration>4</duration>
        <voice>6</voice>
        <type>half</type>
        <stem>down</stem>
        <staff>2</staff>
        </note>
      <backup>
        <duration>8</duration>
        </backup>
      <note default-x="128.87" default-y="-10">
        <rest measure="yes"/>
        <duration>8</duration>
        <voice>9</voice>
        <staff>3</staff>
        </note>
      </measure>
    <measure number="18" width="154.76">
      <note default-x="13.46" default-y="-10">
        <pitch>
          <step>D</step>
          <octave>5</octave>
          </pitch>
        <duration>2</duration>
        <voice>1</voice>
        <type>quarter</type>
        <stem>up</stem>
        <staff>1</staff>
        <notations>
          <slur type="start" bezier-x="9.199812" bezier-y="8.706133" number="1"/>
          </notations>
        <lyric number="2" default-y="-64.92" relative-y="-30">
          <syllabic>middle</syllabic>
          <text>ny</text>
          </lyric>
        </note>
      <note default-x="53.32" default-y="-15">
        <pitch>
          <step>C</step>
          <octave>5</octave>
          </pitch>
        <duration>2</duration>
        <voice>1</voice>
        <type>quarter</type>
        <stem>up</stem>
        <staff>1</staff>
        <notations>
          <slur type="stop" number="1" bezier-x="-7.776715" bezier-y="9.9978"/>
          </notations>
        </note>
      <note default-x="93.18" default-y="-15">
        <pitch>
          <step>C</step>
          <octave>5</octave>
          </pitch>
        <duration>4</duration>
        <voice>1</voice>
        <type>half</type>
        <stem>up</stem>
        <staff>1</staff>
        <lyric number="2" default-x="6.5" default-y="-64.92" relative-y="-30">
          <syllabic>end</syllabic>
          <text>mi</text>
          </lyric>
        </note>
      <backup>
        <duration>8</duration>
        </backup>
      <note default-x="12.5" default-y="-30">
        <pitch>
          <step>G</step>
          <octave>4</octave>
          </pitch>
        <duration>8</duration>
        <voice>2</voice>
        <type>whole</type>
        <staff>1</staff>
        </note>
      <backup>
        <duration>8</duration>
        </backup>
      <note default-x="13.46" default-y="-173.15">
        <pitch>
          <step>E</step>
          <octave>3</octave>
          </pitch>
        <duration>4</duration>
        <voice>5</voice>
        <type>half</type>
        <stem>up</stem>
        <staff>2</staff>
        </note>
      <note default-x="93.18" default-y="-173.15">
        <pitch>
          <step>E</step>
          <octave>3</octave>
          </pitch>
        <duration>4</duration>
        <voice>5</voice>
        <type>half</type>
        <stem>up</stem>
        <staff>2</staff>
        </note>
      <backup>
        <duration>8</duration>
        </backup>
      <note default-x="13.46" default-y="-188.15">
        <pitch>
          <step>B</step>
          <octave>2</octave>
          </pitch>
        <duration>4</duration>
        <voice>6</voice>
        <type>half</type>
        <stem>down</stem>
        <staff>2</staff>
        </note>
      <note default-x="93.18" default-y="-183.15">
        <pitch>
          <step>C</step>
          <octave>3</octave>
          </pitch>
        <duration>4</duration>
        <voice>6</voice>
        <type>half</type>
        <stem>down</stem>
        <staff>2</staff>
        </note>
      <backup>
        <duration>8</duration>
        </backup>
      <note default-x="69.99" default-y="-10">
        <rest measure="yes"/>
        <duration>8</duration>
        <voice>9</voice>
        <staff>3</staff>
        </note>
      </measure>
    <measure number="19" width="178.06">
      <note default-x="16.83" default-y="-25">
        <pitch>
          <step>A</step>
          <octave>4</octave>
          </pitch>
        <duration>2</duration>
        <voice>1</voice>
        <type>quarter</type>
        <stem>up</stem>
        <staff>1</staff>
        <lyric number="2" default-x="6.5" default-y="-64.92" relative-y="-30">
          <syllabic>begin</syllabic>
          <text>sław</text>
          </lyric>
        </note>
      <note default-x="56.69" default-y="-25">
        <pitch>
          <step>A</step>
          <octave>4</octave>
          </pitch>
        <duration>2</duration>
        <voice>1</voice>
        <type>quarter</type>
        <stem>up</stem>
        <staff>1</staff>
        <lyric number="2" default-x="6.5" default-y="-64.92" relative-y="-30">
          <syllabic>end</syllabic>
          <text>ny</text>
          </lyric>
        </note>
      <note default-x="96.55" default-y="-25">
        <pitch>
          <step>A</step>
          <octave>4</octave>
          </pitch>
        <duration>2</duration>
        <voice>1</voice>
        <type>quarter</type>
        <stem>up</stem>
        <staff>1</staff>
        <lyric number="2" default-x="6.5" default-y="-64.92" relative-y="-30">
          <syllabic>begin</syllabic>
          <text>pat</text>
          </lyric>
        </note>
      <note default-x="136.4" default-y="-15">
        <pitch>
          <step>C</step>
          <octave>5</octave>
          </pitch>
        <duration>2</duration>
        <voice>1</voice>
        <type>quarter</type>
        <stem>up</stem>
        <staff>1</staff>
        <lyric number="2" default-x="6.5" default-y="-64.92" relative-y="-30">
          <syllabic>middle</syllabic>
          <text>ro</text>
          </lyric>
        </note>
      <backup>
        <duration>8</duration>
        </backup>
      <note default-x="16.83" default-y="-35">
        <pitch>
          <step>F</step>
          <alter>1</alter>
          <octave>4</octave>
          </pitch>
        <duration>2</duration>
        <voice>2</voice>
        <type>quarter</type>
        <stem>down</stem>
        <staff>1</staff>
        </note>
      <note default-x="56.69" default-y="-40">
        <pitch>
          <step>E</step>
          <octave>4</octave>
          </pitch>
        <duration>2</duration>
        <voice>2</voice>
        <type>quarter</type>
        <stem>down</stem>
        <staff>1</staff>
        </note>
      <note default-x="96.55" default-y="-45">
        <pitch>
          <step>D</step>
          <octave>4</octave>
          </pitch>
        <duration>2</duration>
        <voice>2</voice>
        <type>quarter</type>
        <stem>down</stem>
        <staff>1</staff>
        </note>
      <note default-x="136.4" default-y="-50">
        <pitch>
          <step>C</step>
          <octave>4</octave>
          </pitch>
        <duration>2</duration>
        <voice>2</voice>
        <type>quarter</type>
        <stem>down</stem>
        <staff>1</staff>
        </note>
      <backup>
        <duration>8</duration>
        </backup>
      <note default-x="16.83" default-y="-178.15">
        <pitch>
          <step>D</step>
          <octave>3</octave>
          </pitch>
        <duration>4</duration>
        <voice>5</voice>
        <type>half</type>
        <stem>up</stem>
        <staff>2</staff>
        </note>
      <note default-x="96.55" default-y="-163.15">
        <pitch>
          <step>G</step>
          <octave>3</octave>
          </pitch>
        <duration>4</duration>
        <voice>5</voice>
        <type>half</type>
        <stem>up</stem>
        <staff>2</staff>
        </note>
      <backup>
        <duration>8</duration>
        </backup>
      <note default-x="16.83" default-y="-213.15">
        <pitch>
          <step>D</step>
          <octave>2</octave>
          </pitch>
        <duration>4</duration>
        <voice>6</voice>
        <type>half</type>
        <stem>down</stem>
        <staff>2</staff>
        </note>
      <note default-x="96.55" default-y="-208.15">
        <pitch>
          <step>E</step>
          <octave>2</octave>
          </pitch>
        <duration>4</duration>
        <voice>6</voice>
        <type>half</type>
        <stem>down</stem>
        <staff>2</staff>
        </note>
      <backup>
        <duration>8</duration>
        </backup>
      <note default-x="81.63" default-y="-10">
        <rest measure="yes"/>
        <duration>8</duration>
        <voice>9</voice>
        <staff>3</staff>
        </note>
      </measure>
    <measure number="20" width="153.8">
      <note default-x="12.5" default-y="-15">
        <pitch>
          <step>C</step>
          <octave>5</octave>
          </pitch>
        <duration>2</duration>
        <voice>1</voice>
        <type>quarter</type>
        <stem>up</stem>
        <staff>1</staff>
        <notations>
          <slur type="start" bezier-x="9.199812" bezier-y="8.706133" number="1"/>
          </notations>
        <lyric number="2" default-y="-64.92" relative-y="-30">
          <syllabic>middle</syllabic>
          <text>na</text>
          </lyric>
        </note>
      <note default-x="52.36" default-y="-20">
        <pitch>
          <step>B</step>
          <octave>4</octave>
          </pitch>
        <duration>2</duration>
        <voice>1</voice>
        <type>quarter</type>
        <stem>up</stem>
        <staff>1</staff>
        <notations>
          <slur type="stop" number="1" bezier-x="-7.776715" bezier-y="9.9978"/>
          </notations>
        </note>
      <note default-x="92.22" default-y="-20">
        <pitch>
          <step>B</step>
          <octave>4</octave>
          </pitch>
        <duration>4</duration>
        <voice>1</voice>
        <type>half</type>
        <stem>up</stem>
        <staff>1</staff>
        <lyric number="2" default-x="8.92" default-y="-64.92" relative-x="6.22" relative-y="-30">
          <syllabic>end</syllabic>
          <text>mi,</text>
          </lyric>
        </note>
      <backup>
        <duration>8</duration>
        </backup>
      <note default-x="12.5" default-y="-50">
        <pitch>
          <step>C</step>
          <octave>4</octave>
          </pitch>
        <duration>2</duration>
        <voice>2</voice>
        <type>quarter</type>
        <stem>down</stem>
        <staff>1</staff>
        </note>
      <note default-x="52.36" default-y="-45">
        <pitch>
          <step>D</step>
          <octave>4</octave>
          </pitch>
        <duration>2</duration>
        <voice>2</voice>
        <type>quarter</type>
        <stem>down</stem>
        <staff>1</staff>
        </note>
      <note default-x="92.22" default-y="-45">
        <pitch>
          <step>D</step>
          <octave>4</octave>
          </pitch>
        <duration>4</duration>
        <voice>2</voice>
        <type>half</type>
        <stem>down</stem>
        <staff>1</staff>
        </note>
      <backup>
        <duration>8</duration>
        </backup>
      <note default-x="12.5" default-y="-158.15">
        <pitch>
          <step>A</step>
          <octave>3</octave>
          </pitch>
        <duration>4</duration>
        <voice>5</voice>
        <type>half</type>
        <stem>up</stem>
        <staff>2</staff>
        </note>
      <note default-x="92.22" default-y="-163.15">
        <pitch>
          <step>G</step>
          <octave>3</octave>
          </pitch>
        <duration>4</duration>
        <voice>5</voice>
        <type>half</type>
        <stem>up</stem>
        <staff>2</staff>
        </note>
      <backup>
        <duration>8</duration>
        </backup>
      <note default-x="12.5" default-y="-203.15">
        <pitch>
          <step>F</step>
          <alter>1</alter>
          <octave>2</octave>
          </pitch>
        <duration>4</duration>
        <voice>6</voice>
        <type>half</type>
        <stem>down</stem>
        <staff>2</staff>
        </note>
      <note default-x="92.22" default-y="-198.15">
        <pitch>
          <step>G</step>
          <octave>2</octave>
          </pitch>
        <duration>4</duration>
        <voice>6</voice>
        <type>half</type>
        <stem>down</stem>
        <staff>2</staff>
        </note>
      <backup>
        <duration>8</duration>
        </backup>
      <note default-x="69.5" default-y="-10">
        <rest measure="yes"/>
        <duration>8</duration>
        <voice>9</voice>
        <staff>3</staff>
        </note>
      </measure>
    <measure number="21" width="160.15">
      <note default-x="18.85" default-y="-10">
        <pitch>
          <step>D</step>
          <octave>5</octave>
          </pitch>
        <duration>4</duration>
        <voice>1</voice>
        <type>half</type>
        <stem>up</stem>
        <staff>1</staff>
        <lyric number="2" default-x="6.5" default-y="-64.92" relative-y="-30">
          <syllabic>single</syllabic>
          <text>módl</text>
          </lyric>
        </note>
      <note default-x="78.63" default-y="-15">
        <pitch>
          <step>C</step>
          <octave>5</octave>
          </pitch>
        <duration>2</duration>
        <voice>1</voice>
        <type>quarter</type>
        <stem>up</stem>
        <staff>1</staff>
        <lyric number="2" default-x="6.5" default-y="-64.92" relative-y="-30">
          <syllabic>single</syllabic>
          <text>się</text>
          </lyric>
        </note>
      <note default-x="118.49" default-y="-20">
        <pitch>
          <step>B</step>
          <octave>4</octave>
          </pitch>
        <duration>2</duration>
        <voice>1</voice>
        <type>quarter</type>
        <stem>up</stem>
        <staff>1</staff>
        <lyric number="2" default-x="6.5" default-y="-64.92" relative-y="-30">
          <syllabic>single</syllabic>
          <text>za</text>
          </lyric>
        </note>
      <backup>
        <duration>8</duration>
        </backup>
      <note default-x="18.85" default-y="-30">
        <pitch>
          <step>G</step>
          <octave>4</octave>
          </pitch>
        <duration>4</duration>
        <voice>2</voice>
        <type>half</type>
        <stem>down</stem>
        <staff>1</staff>
        </note>
      <note default-x="78.63" default-y="-30">
        <pitch>
          <step>G</step>
          <octave>4</octave>
          </pitch>
        <duration>2</duration>
        <voice>2</voice>
        <type>quarter</type>
        <stem>down</stem>
        <staff>1</staff>
        </note>
      <note default-x="118.49" default-y="-30">
        <pitch>
          <step>G</step>
          <octave>4</octave>
          </pitch>
        <duration>2</duration>
        <voice>2</voice>
        <type>quarter</type>
        <stem>down</stem>
        <staff>1</staff>
        </note>
      <backup>
        <duration>8</duration>
        </backup>
      <note default-x="18.85" default-y="-143.15">
        <pitch>
          <step>D</step>
          <octave>4</octave>
          </pitch>
        <duration>4</duration>
        <voice>5</voice>
        <type>half</type>
        <stem>up</stem>
        <staff>2</staff>
        </note>
      <note default-x="78.63" default-y="-138.15">
        <pitch>
          <step>E</step>
          <octave>4</octave>
          </pitch>
        <duration>2</duration>
        <voice>5</voice>
        <type>quarter</type>
        <stem>up</stem>
        <staff>2</staff>
        </note>
      <note default-x="118.49" default-y="-143.15">
        <pitch>
          <step>D</step>
          <octave>4</octave>
          </pitch>
        <duration>2</duration>
        <tie type="start"/>
        <voice>5</voice>
        <type>quarter</type>
        <stem>up</stem>
        <staff>2</staff>
        <notations>
          <tied type="start"/>
          </notations>
        </note>
      <backup>
        <duration>8</duration>
        </backup>
      <note default-x="18.85" default-y="-188.15">
        <pitch>
          <step>B</step>
          <octave>2</octave>
          </pitch>
        <duration>4</duration>
        <voice>6</voice>
        <type>half</type>
        <stem>down</stem>
        <staff>2</staff>
        </note>
      <note default-x="78.63" default-y="-183.15">
        <pitch>
          <step>C</step>
          <octave>3</octave>
          </pitch>
        <duration>4</duration>
        <voice>6</voice>
        <type>half</type>
        <stem>down</stem>
        <staff>2</staff>
        </note>
      <backup>
        <duration>8</duration>
        </backup>
      <note default-x="72.68" default-y="-10">
        <rest measure="yes"/>
        <duration>8</duration>
        <voice>9</voice>
        <staff>3</staff>
        </note>
      </measure>
    <measure number="22" width="163">
      <note default-x="12.5" default-y="-25">
        <pitch>
          <step>A</step>
          <octave>4</octave>
          </pitch>
        <duration>4</duration>
        <voice>1</voice>
        <type>half</type>
        <stem>up</stem>
        <staff>1</staff>
        <lyric number="2" default-x="6.5" default-y="-64.92" relative-y="-30">
          <syllabic>begin</syllabic>
          <text>na</text>
          </lyric>
        </note>
      <note default-x="92.22" default-y="-30">
        <pitch>
          <step>G</step>
          <octave>4</octave>
          </pitch>
        <duration>4</duration>
        <voice>1</voice>
        <type>half</type>
        <stem>up</stem>
        <staff>1</staff>
        <lyric number="2" default-x="8.71" default-y="-64.92" relative-y="-30">
          <syllabic>end</syllabic>
          <text>mi.</text>
          </lyric>
        </note>
      <backup>
        <duration>8</duration>
        </backup>
      <note default-x="12.5" default-y="-35">
        <pitch>
          <step>F</step>
          <alter>1</alter>
          <octave>4</octave>
          </pitch>
        <duration>4</duration>
        <voice>2</voice>
        <type>half</type>
        <stem>down</stem>
        <staff>1</staff>
        </note>
      <note default-x="92.22" default-y="-45">
        <pitch>
          <step>D</step>
          <octave>4</octave>
          </pitch>
        <duration>4</duration>
        <voice>2</voice>
        <type>half</type>
        <stem>down</stem>
        <staff>1</staff>
        </note>
      <backup>
        <duration>8</duration>
        </backup>
      <note default-x="12.5" default-y="-143.15">
        <pitch>
          <step>D</step>
          <octave>4</octave>
          </pitch>
        <duration>2</duration>
        <tie type="stop"/>
        <voice>5</voice>
        <type>quarter</type>
        <stem>up</stem>
        <staff>2</staff>
        <notations>
          <tied type="stop"/>
          </notations>
        </note>
      <note default-x="52.36" default-y="-148.15">
        <pitch>
          <step>C</step>
          <octave>4</octave>
          </pitch>
        <duration>2</duration>
        <voice>5</voice>
        <type>quarter</type>
        <stem>up</stem>
        <staff>2</staff>
        </note>
      <note default-x="92.22" default-y="-153.15">
        <pitch>
          <step>B</step>
          <octave>3</octave>
          </pitch>
        <duration>4</duration>
        <voice>5</voice>
        <type>half</type>
        <stem>up</stem>
        <staff>2</staff>
        </note>
      <backup>
        <duration>8</duration>
        </backup>
      <note default-x="12.5" default-y="-178.15">
        <pitch>
          <step>D</step>
          <octave>3</octave>
          </pitch>
        <duration>4</duration>
        <voice>6</voice>
        <type>half</type>
        <stem>down</stem>
        <staff>2</staff>
        </note>
      <note default-x="92.22" default-y="-163.15">
        <pitch>
          <step>G</step>
          <octave>3</octave>
          </pitch>
        <duration>4</duration>
        <voice>6</voice>
        <type>half</type>
        <stem>down</stem>
        <staff>2</staff>
        </note>
      <backup>
        <duration>8</duration>
        </backup>
      <note default-x="69.5" default-y="-10">
        <rest measure="yes"/>
        <duration>8</duration>
        <voice>9</voice>
        <staff>3</staff>
        </note>
      <barline location="right">
        <bar-style>light-heavy</bar-style>
        </barline>
      </measure>
    </part>
  </score-partwise>
